<mxfile host="app.diagrams.net" modified="2024-09-24T11:44:16.885Z" agent="Mozilla/5.0 (X11; Linux x86_64) AppleWebKit/537.36 (KHTML, like Gecko) Chrome/129.0.0.0 Safari/537.36" version="23.1.4" etag="Kq7_amWfW50WDbh_BxvN" type="github">
  <diagram name="Page-1" id="aSFnrGsEZerKpgFlY_de">
    <mxGraphModel>
      <root>
        <mxCell id="0" />
        <mxCell id="1" parent="0" />
      </root>
    </mxGraphModel>
  </diagram>
</mxfile>
